<svg width="65" height="65" viewBox="0 0 65 65" fill="none" xmlns="http://www.w3.org/2000/svg">
<circle cx="32.5" cy="32.5" r="32.5" fill="#FF6B00" fill-opacity="0.16"/>
<path d="M30.1766 42.1349C30.86 43.3649 31.6116 44.1165 32.5 44.1165C34.755 44.1165 36.6 38.9232 36.6 32.4999C36.6 29.3565 36.19 26.4865 35.4383 24.4365" fill="#FF6F07" fill-opacity="0.85"/>
<path d="M35.4383 24.4371C34.6867 22.2505 33.6617 20.8838 32.5 20.8838C30.245 20.8838 28.4 26.0771 28.4 32.5005C28.4 36.5321 29.0833 40.0171 30.1767 42.1355" fill="#F36C0A"/>
<path d="M46.1667 52.9997C49.9406 52.9997 53 49.9403 53 46.1663C53 42.3924 49.9406 39.333 46.1667 39.333C42.3927 39.333 39.3333 42.3924 39.3333 46.1663C39.3333 49.9403 42.3927 52.9997 46.1667 52.9997Z" fill="white"/>
<path d="M18.8333 52.9997C22.6073 52.9997 25.6667 49.9403 25.6667 46.1663C25.6667 42.3924 22.6073 39.333 18.8333 39.333C15.0594 39.333 12 42.3924 12 46.1663C12 49.9403 15.0594 52.9997 18.8333 52.9997Z" fill="white"/>
<path d="M18.8333 25.6667C22.6073 25.6667 25.6667 22.6073 25.6667 18.8333C25.6667 15.0594 22.6073 12 18.8333 12C15.0594 12 12 15.0594 12 18.8333C12 22.6073 15.0594 25.6667 18.8333 25.6667Z" fill="white"/>
<path d="M46.1667 25.6667C49.9406 25.6667 53 22.6073 53 18.8333C53 15.0594 49.9406 12 46.1667 12C42.3927 12 39.3333 15.0594 39.3333 18.8333C39.3333 22.6073 42.3927 25.6667 46.1667 25.6667Z" fill="white"/>
<path d="M32.5 44.1171C34.7644 44.1171 36.6 38.9162 36.6 32.5005C36.6 26.0847 34.7644 20.8838 32.5 20.8838C30.2356 20.8838 28.4 26.0847 28.4 32.5005C28.4 38.9162 30.2356 44.1171 32.5 44.1171Z" stroke="black" stroke-width="1.36667" stroke-miterlimit="10" stroke-linecap="round" stroke-linejoin="round"/>
<path d="M46.1667 52.9997C49.9406 52.9997 53 49.9403 53 46.1663C53 42.3924 49.9406 39.333 46.1667 39.333C42.3927 39.333 39.3333 42.3924 39.3333 46.1663C39.3333 49.9403 42.3927 52.9997 46.1667 52.9997Z" stroke="black" stroke-width="1.36667" stroke-miterlimit="10" stroke-linecap="round" stroke-linejoin="round"/>
<path d="M36.6 36.5996L41.315 41.3146" stroke="black" stroke-width="1.36667" stroke-miterlimit="10" stroke-linecap="round" stroke-linejoin="round"/>
<path d="M18.8333 52.9997C22.6073 52.9997 25.6667 49.9403 25.6667 46.1663C25.6667 42.3924 22.6073 39.333 18.8333 39.333C15.0594 39.333 12 42.3924 12 46.1663C12 49.9403 15.0594 52.9997 18.8333 52.9997Z" stroke="black" stroke-width="1.36667" stroke-miterlimit="10" stroke-linecap="round" stroke-linejoin="round"/>
<path d="M28.4 36.5996L23.685 41.3146" stroke="black" stroke-width="1.36667" stroke-miterlimit="10" stroke-linecap="round" stroke-linejoin="round"/>
<path d="M18.8333 25.6667C22.6073 25.6667 25.6667 22.6073 25.6667 18.8333C25.6667 15.0594 22.6073 12 18.8333 12C15.0594 12 12 15.0594 12 18.8333C12 22.6073 15.0594 25.6667 18.8333 25.6667Z" stroke="black" stroke-width="1.36667" stroke-miterlimit="10" stroke-linecap="round" stroke-linejoin="round"/>
<path d="M28.4 28.3996L23.685 23.6846" stroke="black" stroke-width="1.36667" stroke-miterlimit="10" stroke-linecap="round" stroke-linejoin="round"/>
<path d="M46.1667 25.6667C49.9406 25.6667 53 22.6073 53 18.8333C53 15.0594 49.9406 12 46.1667 12C42.3927 12 39.3333 15.0594 39.3333 18.8333C39.3333 22.6073 42.3927 25.6667 46.1667 25.6667Z" stroke="black" stroke-width="1.36667" stroke-miterlimit="10" stroke-linecap="round" stroke-linejoin="round"/>
<path d="M36.6 28.3996L41.315 23.6846" stroke="black" stroke-width="1.36667" stroke-miterlimit="10" stroke-linecap="round" stroke-linejoin="round"/>
<path d="M49.1733 43.1602L43.16 49.1735" stroke="black" stroke-width="1.36667" stroke-miterlimit="10" stroke-linecap="round" stroke-linejoin="round"/>
<path d="M15.8267 43.1602L21.84 49.1735" stroke="black" stroke-width="1.36667" stroke-miterlimit="10" stroke-linecap="round" stroke-linejoin="round"/>
<path d="M15.8267 21.8405L21.84 15.8271" stroke="black" stroke-width="1.36667" stroke-miterlimit="10" stroke-linecap="round" stroke-linejoin="round"/>
<path d="M49.1733 21.8405L43.16 15.8271" stroke="black" stroke-width="1.36667" stroke-miterlimit="10" stroke-linecap="round" stroke-linejoin="round"/>
<path d="M49.1733 43.1602L43.16 49.1735" stroke="#FF6F07" stroke-opacity="0.85" stroke-width="1.435" stroke-miterlimit="10" stroke-linecap="round" stroke-linejoin="round"/>
<path d="M15.8267 43.1602L21.84 49.1735" stroke="#FF6F07" stroke-opacity="0.85" stroke-width="1.435" stroke-miterlimit="10" stroke-linecap="round" stroke-linejoin="round"/>
<path d="M15.8267 21.8405L21.84 15.8271" stroke="#FF6F07" stroke-opacity="0.85" stroke-width="1.435" stroke-miterlimit="10" stroke-linecap="round" stroke-linejoin="round"/>
<path d="M49.1733 21.8405L43.16 15.8271" stroke="#FF6F07" stroke-opacity="0.85" stroke-width="1.435" stroke-miterlimit="10" stroke-linecap="round" stroke-linejoin="round"/>
</svg>
