<svg width="65" height="65" viewBox="0 0 65 65" fill="none" xmlns="http://www.w3.org/2000/svg">
<circle cx="32.5" cy="32.5" r="32.5" fill="#FF6B00" fill-opacity="0.16"/>
<path d="M17.2122 17.9792C18.724 17.9792 19.9496 16.8074 19.9496 15.3619C19.9496 13.9164 18.724 12.7446 17.2122 12.7446C15.7004 12.7446 14.4748 13.9164 14.4748 15.3619C14.4748 16.8074 15.7004 17.9792 17.2122 17.9792Z" fill="#F36C0A"/>
<path d="M49.141 26.113C50.6529 26.113 51.8784 24.9412 51.8784 23.4957C51.8784 22.0502 50.6529 20.8784 49.141 20.8784C47.6292 20.8784 46.4036 22.0502 46.4036 23.4957C46.4036 24.9412 47.6292 26.113 49.141 26.113Z" fill="#F36C0A"/>
<path d="M25.4178 44.1594C26.9297 44.1594 28.1552 42.9876 28.1552 41.5421C28.1552 40.0966 26.9297 38.9248 25.4178 38.9248C23.906 38.9248 22.6804 40.0966 22.6804 41.5421C22.6804 42.9876 23.906 44.1594 25.4178 44.1594Z" fill="#F36C0A"/>
<path d="M12.1358 24.1777L14.9475 21.8099L19.3586 21.6372L22.0673 24.1037L22.6917 27.5759L11.668 27.5691L12.1358 24.1777Z" fill="#F36C0A"/>
<path d="M44.1219 32.3139L46.9337 29.9461L51.3448 29.7734L54.0534 32.2398L54.6778 35.7121L43.6542 35.7053L44.1219 32.3139Z" fill="#F36C0A"/>
<path d="M20.3918 50.3568L23.2036 47.9891L27.6148 47.8164L30.3233 50.2828L30.9477 53.7551L19.9241 53.7483L20.3918 50.3568Z" fill="#F36C0A"/>
<path d="M18.2122 17.9792C19.724 17.9792 20.9496 16.8074 20.9496 15.3619C20.9496 13.9164 19.724 12.7446 18.2122 12.7446C16.7004 12.7446 15.4748 13.9164 15.4748 15.3619C15.4748 16.8074 16.7004 17.9792 18.2122 17.9792Z" fill="#F36C0A" stroke="black" stroke-width="1.82494" stroke-miterlimit="10"/>
<path d="M12.7374 26.704C12.7374 26.704 13.6499 22.9428 15.4748 22.0703C17.2998 21.1979 19.1247 21.1979 20.9496 22.0703C22.7746 22.9428 23.687 26.704 23.687 26.704" fill="#F36C0A"/>
<path d="M12.7374 26.704C12.7374 26.704 13.6499 22.9428 15.4748 22.0703C17.2998 21.1979 19.1247 21.1979 20.9496 22.0703C22.7746 22.9428 23.687 26.704 23.687 26.704" stroke="black" stroke-width="1.82494" stroke-miterlimit="10" stroke-linecap="round" stroke-linejoin="round"/>
<path d="M50.141 26.113C51.6529 26.113 52.8784 24.9412 52.8784 23.4957C52.8784 22.0502 51.6529 20.8784 50.141 20.8784C48.6292 20.8784 47.4036 22.0502 47.4036 23.4957C47.4036 24.9412 48.6292 26.113 50.141 26.113Z" fill="#F36C0A" stroke="black" stroke-width="1.82494" stroke-miterlimit="10"/>
<path d="M44.6662 34.8383C44.6662 34.8383 45.5787 31.0771 47.4036 30.2046C49.2286 29.3322 51.0535 29.3322 52.8784 30.2046C54.7034 31.0771 55.6159 34.8383 55.6159 34.8383" fill="#F36C0A"/>
<path d="M44.6662 34.8383C44.6662 34.8383 45.5787 31.0771 47.4036 30.2046C49.2286 29.3322 51.0535 29.3322 52.8784 30.2046C54.7034 31.0771 55.6159 34.8383 55.6159 34.8383" stroke="black" stroke-width="1.82494" stroke-miterlimit="10" stroke-linecap="round" stroke-linejoin="round"/>
<path d="M26.4178 44.1594C27.9297 44.1594 29.1552 42.9876 29.1552 41.5421C29.1552 40.0966 27.9297 38.9248 26.4178 38.9248C24.906 38.9248 23.6804 40.0966 23.6804 41.5421C23.6804 42.9876 24.906 44.1594 26.4178 44.1594Z" fill="#F36C0A" stroke="black" stroke-width="1.82494" stroke-miterlimit="10"/>
<path d="M20.943 52.8842C20.943 52.8842 21.8555 49.123 23.6804 48.2505C25.5054 47.3781 27.3303 47.3781 29.1553 48.2505C30.9802 49.123 31.8927 52.8842 31.8927 52.8842" fill="#F36C0A"/>
<path d="M20.943 52.8842C20.943 52.8842 21.8555 49.123 23.6804 48.2505C25.5054 47.3781 27.3303 47.3781 29.1553 48.2505C30.9802 49.123 31.8927 52.8842 31.8927 52.8842" stroke="black" stroke-width="1.82494" stroke-miterlimit="10" stroke-linecap="round" stroke-linejoin="round"/>
<path d="M47.0024 18.0978C43.1527 13.7558 37.4064 11 30.9868 11C28.4599 11 26.0373 11.427 23.7936 12.2096" stroke="black" stroke-width="1.82494" stroke-miterlimit="10" stroke-linecap="round" stroke-linejoin="round"/>
<path d="M35.032 50.7592C42.5257 49.3601 48.5925 44.1484 50.9333 37.3223" stroke="black" stroke-width="1.82494" stroke-miterlimit="10" stroke-linecap="round" stroke-linejoin="round"/>
<path d="M10.0792 29.311C10.0267 29.8894 10 30.4747 10 31.066C10 38.0231 13.703 44.1533 19.3273 47.7529" stroke="black" stroke-width="1.82494" stroke-miterlimit="10" stroke-linecap="round" stroke-linejoin="round"/>
</svg>
