<svg width="806" height="134" viewBox="0 0 806 134" fill="none" xmlns="http://www.w3.org/2000/svg">
<rect x="55" y="13" width="669" height="6" rx="3" fill="#989898"/>
<path d="M5.74 22.22C4.79333 22.22 3.97 21.9833 3.27 21.51C2.57 21.0367 2.02667 20.3267 1.64 19.38C1.25333 18.4267 1.06 17.24 1.06 15.82C1.06 14.4 1.25333 13.22 1.64 12.28C2.02667 11.3333 2.57 10.6267 3.27 10.16C3.97 9.68667 4.79333 9.45 5.74 9.45C6.68667 9.45 7.51 9.68667 8.21 10.16C8.91 10.6267 9.45333 11.3333 9.84 12.28C10.2333 13.22 10.43 14.4 10.43 15.82C10.43 17.24 10.2333 18.4267 9.84 19.38C9.45333 20.3267 8.91 21.0367 8.21 21.51C7.51 21.9833 6.68667 22.22 5.74 22.22ZM5.74 21.14C6.89333 21.14 7.76 20.6767 8.34 19.75C8.92667 18.8167 9.22 17.5067 9.22 15.82C9.22 14.1333 8.92667 12.8267 8.34 11.9C7.76 10.9733 6.89333 10.51 5.74 10.51C4.60667 10.51 3.74333 10.9733 3.15 11.9C2.56333 12.8267 2.27 14.1333 2.27 15.82C2.27 17.5067 2.56333 18.8167 3.15 19.75C3.74333 20.6767 4.60667 21.14 5.74 21.14ZM12.6544 20.47C12.6544 20.23 12.741 20.0167 12.9144 19.83C13.0944 19.6433 13.3144 19.55 13.5744 19.55C13.841 19.55 14.0677 19.6433 14.2544 19.83C14.441 20.0167 14.5344 20.23 14.5344 20.47C14.5344 20.7167 14.441 20.9267 14.2544 21.1C14.0677 21.2733 13.841 21.36 13.5744 21.36C13.3144 21.36 13.0944 21.2733 12.9144 21.1C12.741 20.9267 12.6544 20.7167 12.6544 20.47ZM12.6544 14.27C12.6544 14.03 12.741 13.8167 12.9144 13.63C13.0944 13.4433 13.3144 13.35 13.5744 13.35C13.841 13.35 14.0677 13.4433 14.2544 13.63C14.441 13.8167 14.5344 14.03 14.5344 14.27C14.5344 14.5167 14.441 14.7267 14.2544 14.9C14.0677 15.0733 13.841 15.16 13.5744 15.16C13.3144 15.16 13.0944 15.0733 12.9144 14.9C12.741 14.7267 12.6544 14.5167 12.6544 14.27ZM21.4431 22.22C20.4965 22.22 19.6731 21.9833 18.9731 21.51C18.2731 21.0367 17.7298 20.3267 17.3431 19.38C16.9565 18.4267 16.7631 17.24 16.7631 15.82C16.7631 14.4 16.9565 13.22 17.3431 12.28C17.7298 11.3333 18.2731 10.6267 18.9731 10.16C19.6731 9.68667 20.4965 9.45 21.4431 9.45C22.3898 9.45 23.2131 9.68667 23.9131 10.16C24.6131 10.6267 25.1565 11.3333 25.5431 12.28C25.9365 13.22 26.1331 14.4 26.1331 15.82C26.1331 17.24 25.9365 18.4267 25.5431 19.38C25.1565 20.3267 24.6131 21.0367 23.9131 21.51C23.2131 21.9833 22.3898 22.22 21.4431 22.22ZM21.4431 21.14C22.5965 21.14 23.4631 20.6767 24.0431 19.75C24.6298 18.8167 24.9231 17.5067 24.9231 15.82C24.9231 14.1333 24.6298 12.8267 24.0431 11.9C23.4631 10.9733 22.5965 10.51 21.4431 10.51C20.3098 10.51 19.4465 10.9733 18.8531 11.9C18.2665 12.8267 17.9731 14.1333 17.9731 15.82C17.9731 17.5067 18.2665 18.8167 18.8531 19.75C19.4465 20.6767 20.3098 21.14 21.4431 21.14ZM32.9275 22.22C31.9808 22.22 31.1575 21.9833 30.4575 21.51C29.7575 21.0367 29.2142 20.3267 28.8275 19.38C28.4408 18.4267 28.2475 17.24 28.2475 15.82C28.2475 14.4 28.4408 13.22 28.8275 12.28C29.2142 11.3333 29.7575 10.6267 30.4575 10.16C31.1575 9.68667 31.9808 9.45 32.9275 9.45C33.8742 9.45 34.6975 9.68667 35.3975 10.16C36.0975 10.6267 36.6408 11.3333 37.0275 12.28C37.4208 13.22 37.6175 14.4 37.6175 15.82C37.6175 17.24 37.4208 18.4267 37.0275 19.38C36.6408 20.3267 36.0975 21.0367 35.3975 21.51C34.6975 21.9833 33.8742 22.22 32.9275 22.22ZM32.9275 21.14C34.0808 21.14 34.9475 20.6767 35.5275 19.75C36.1142 18.8167 36.4075 17.5067 36.4075 15.82C36.4075 14.1333 36.1142 12.8267 35.5275 11.9C34.9475 10.9733 34.0808 10.51 32.9275 10.51C31.7942 10.51 30.9308 10.9733 30.3375 11.9C29.7508 12.8267 29.4575 14.1333 29.4575 15.82C29.4575 17.5067 29.7508 18.8167 30.3375 19.75C30.9308 20.6767 31.7942 21.14 32.9275 21.14Z" fill="white"/>
<path d="M745.74 22.22C744.793 22.22 743.97 21.9833 743.27 21.51C742.57 21.0367 742.027 20.3267 741.64 19.38C741.253 18.4267 741.06 17.24 741.06 15.82C741.06 14.4 741.253 13.22 741.64 12.28C742.027 11.3333 742.57 10.6267 743.27 10.16C743.97 9.68667 744.793 9.45 745.74 9.45C746.687 9.45 747.51 9.68667 748.21 10.16C748.91 10.6267 749.453 11.3333 749.84 12.28C750.233 13.22 750.43 14.4 750.43 15.82C750.43 17.24 750.233 18.4267 749.84 19.38C749.453 20.3267 748.91 21.0367 748.21 21.51C747.51 21.9833 746.687 22.22 745.74 22.22ZM745.74 21.14C746.893 21.14 747.76 20.6767 748.34 19.75C748.927 18.8167 749.22 17.5067 749.22 15.82C749.22 14.1333 748.927 12.8267 748.34 11.9C747.76 10.9733 746.893 10.51 745.74 10.51C744.607 10.51 743.743 10.9733 743.15 11.9C742.563 12.8267 742.27 14.1333 742.27 15.82C742.27 17.5067 742.563 18.8167 743.15 19.75C743.743 20.6767 744.607 21.14 745.74 21.14ZM752.654 20.47C752.654 20.23 752.741 20.0167 752.914 19.83C753.094 19.6433 753.314 19.55 753.574 19.55C753.841 19.55 754.068 19.6433 754.254 19.83C754.441 20.0167 754.534 20.23 754.534 20.47C754.534 20.7167 754.441 20.9267 754.254 21.1C754.068 21.2733 753.841 21.36 753.574 21.36C753.314 21.36 753.094 21.2733 752.914 21.1C752.741 20.9267 752.654 20.7167 752.654 20.47ZM752.654 14.27C752.654 14.03 752.741 13.8167 752.914 13.63C753.094 13.4433 753.314 13.35 753.574 13.35C753.841 13.35 754.068 13.4433 754.254 13.63C754.441 13.8167 754.534 14.03 754.534 14.27C754.534 14.5167 754.441 14.7267 754.254 14.9C754.068 15.0733 753.841 15.16 753.574 15.16C753.314 15.16 753.094 15.0733 752.914 14.9C752.741 14.7267 752.654 14.5167 752.654 14.27ZM761.443 22.22C760.496 22.22 759.673 21.9833 758.973 21.51C758.273 21.0367 757.73 20.3267 757.343 19.38C756.956 18.4267 756.763 17.24 756.763 15.82C756.763 14.4 756.956 13.22 757.343 12.28C757.73 11.3333 758.273 10.6267 758.973 10.16C759.673 9.68667 760.496 9.45 761.443 9.45C762.39 9.45 763.213 9.68667 763.913 10.16C764.613 10.6267 765.156 11.3333 765.543 12.28C765.936 13.22 766.133 14.4 766.133 15.82C766.133 17.24 765.936 18.4267 765.543 19.38C765.156 20.3267 764.613 21.0367 763.913 21.51C763.213 21.9833 762.39 22.22 761.443 22.22ZM761.443 21.14C762.596 21.14 763.463 20.6767 764.043 19.75C764.63 18.8167 764.923 17.5067 764.923 15.82C764.923 14.1333 764.63 12.8267 764.043 11.9C763.463 10.9733 762.596 10.51 761.443 10.51C760.31 10.51 759.446 10.9733 758.853 11.9C758.266 12.8267 757.973 14.1333 757.973 15.82C757.973 17.5067 758.266 18.8167 758.853 19.75C759.446 20.6767 760.31 21.14 761.443 21.14ZM772.928 22.22C771.981 22.22 771.158 21.9833 770.458 21.51C769.758 21.0367 769.214 20.3267 768.828 19.38C768.441 18.4267 768.248 17.24 768.248 15.82C768.248 14.4 768.441 13.22 768.828 12.28C769.214 11.3333 769.758 10.6267 770.458 10.16C771.158 9.68667 771.981 9.45 772.928 9.45C773.874 9.45 774.698 9.68667 775.398 10.16C776.098 10.6267 776.641 11.3333 777.028 12.28C777.421 13.22 777.618 14.4 777.618 15.82C777.618 17.24 777.421 18.4267 777.028 19.38C776.641 20.3267 776.098 21.0367 775.398 21.51C774.698 21.9833 773.874 22.22 772.928 22.22ZM772.928 21.14C774.081 21.14 774.948 20.6767 775.528 19.75C776.114 18.8167 776.408 17.5067 776.408 15.82C776.408 14.1333 776.114 12.8267 775.528 11.9C774.948 10.9733 774.081 10.51 772.928 10.51C771.794 10.51 770.931 10.9733 770.338 11.9C769.751 12.8267 769.458 14.1333 769.458 15.82C769.458 17.5067 769.751 18.8167 770.338 19.75C770.931 20.6767 771.794 21.14 772.928 21.14ZM779.842 20.47C779.842 20.23 779.929 20.0167 780.102 19.83C780.282 19.6433 780.502 19.55 780.762 19.55C781.029 19.55 781.255 19.6433 781.442 19.83C781.629 20.0167 781.722 20.23 781.722 20.47C781.722 20.7167 781.629 20.9267 781.442 21.1C781.255 21.2733 781.029 21.36 780.762 21.36C780.502 21.36 780.282 21.2733 780.102 21.1C779.929 20.9267 779.842 20.7167 779.842 20.47ZM779.842 14.27C779.842 14.03 779.929 13.8167 780.102 13.63C780.282 13.4433 780.502 13.35 780.762 13.35C781.029 13.35 781.255 13.4433 781.442 13.63C781.629 13.8167 781.722 14.03 781.722 14.27C781.722 14.5167 781.629 14.7267 781.442 14.9C781.255 15.0733 781.029 15.16 780.762 15.16C780.502 15.16 780.282 15.0733 780.102 14.9C779.929 14.7267 779.842 14.5167 779.842 14.27ZM788.631 22.22C787.684 22.22 786.861 21.9833 786.161 21.51C785.461 21.0367 784.917 20.3267 784.531 19.38C784.144 18.4267 783.951 17.24 783.951 15.82C783.951 14.4 784.144 13.22 784.531 12.28C784.917 11.3333 785.461 10.6267 786.161 10.16C786.861 9.68667 787.684 9.45 788.631 9.45C789.577 9.45 790.401 9.68667 791.101 10.16C791.801 10.6267 792.344 11.3333 792.731 12.28C793.124 13.22 793.321 14.4 793.321 15.82C793.321 17.24 793.124 18.4267 792.731 19.38C792.344 20.3267 791.801 21.0367 791.101 21.51C790.401 21.9833 789.577 22.22 788.631 22.22ZM788.631 21.14C789.784 21.14 790.651 20.6767 791.231 19.75C791.817 18.8167 792.111 17.5067 792.111 15.82C792.111 14.1333 791.817 12.8267 791.231 11.9C790.651 10.9733 789.784 10.51 788.631 10.51C787.497 10.51 786.634 10.9733 786.041 11.9C785.454 12.8267 785.161 14.1333 785.161 15.82C785.161 17.5067 785.454 18.8167 786.041 19.75C786.634 20.6767 787.497 21.14 788.631 21.14ZM800.115 22.22C799.168 22.22 798.345 21.9833 797.645 21.51C796.945 21.0367 796.402 20.3267 796.015 19.38C795.628 18.4267 795.435 17.24 795.435 15.82C795.435 14.4 795.628 13.22 796.015 12.28C796.402 11.3333 796.945 10.6267 797.645 10.16C798.345 9.68667 799.168 9.45 800.115 9.45C801.062 9.45 801.885 9.68667 802.585 10.16C803.285 10.6267 803.828 11.3333 804.215 12.28C804.608 13.22 804.805 14.4 804.805 15.82C804.805 17.24 804.608 18.4267 804.215 19.38C803.828 20.3267 803.285 21.0367 802.585 21.51C801.885 21.9833 801.062 22.22 800.115 22.22ZM800.115 21.14C801.268 21.14 802.135 20.6767 802.715 19.75C803.302 18.8167 803.595 17.5067 803.595 15.82C803.595 14.1333 803.302 12.8267 802.715 11.9C802.135 10.9733 801.268 10.51 800.115 10.51C798.982 10.51 798.118 10.9733 797.525 11.9C796.938 12.8267 796.645 14.1333 796.645 15.82C796.645 17.5067 796.938 18.8167 797.525 19.75C798.118 20.6767 798.982 21.14 800.115 21.14Z" fill="white"/>
<circle cx="389.5" cy="86.5" r="47.5" fill="#F3FFF1"/>
<circle cx="389.5" cy="86.5001" r="39.4615" fill="#EDEDED"/>
<circle cx="389.5" cy="86.4999" r="30.6923" fill="#B0C7A9"/>
<path d="M399.81 84.6665C401.272 85.5104 401.272 87.6199 399.81 88.4637L386.108 96.3745C384.647 97.2184 382.82 96.1636 382.82 94.4759V78.6543C382.82 76.9667 384.647 75.9119 386.108 76.7557L399.81 84.6665Z" fill="#106804"/>
</svg>
